<?xml version="1.0" encoding="UTF-8"?>
<svg id="Calque_2" data-name="Calque 2" xmlns="http://www.w3.org/2000/svg" viewBox="0 0 81.5 81.48">
  <defs>
    <style>
      .cls-1 {
        fill: #fff;
      }
    </style>
  </defs>
  <g id="Calque_1-2" data-name="Calque 1">
    <g>
      <path class="cls-1" d="M.02,39.6C.81,16.98,19.55-.71,41.95,.02c22.52,.73,40.35,19.68,39.51,41.99-.85,22.55-19.6,40.2-41.94,39.44C17.02,80.7-.75,61.87,.02,39.6Zm73.52,1.27c.19-17.86-14.47-32.72-32.47-32.92-18.06-.2-32.96,14.41-33.14,32.5-.18,18.06,14.45,32.94,32.53,33.11,18.11,.17,32.89-14.44,33.08-32.69Z"/>
      <path class="cls-1" d="M73.55,40.87c-.19,18.25-14.97,32.86-33.08,32.69-18.09-.17-32.71-15.05-32.53-33.11,.18-18.09,15.08-32.7,33.14-32.5,18.01,.2,32.66,15.06,32.47,32.92Zm-36.91-12.05c0,3.52,.01,7.04,0,10.55,0,1.72,.48,3.26,1.69,4.48,5.12,5.16,10.26,10.31,15.43,15.43,1.27,1.26,3.17,1.33,4.5,.32,1.78-1.34,1.88-3.71,.16-5.44-4.47-4.51-8.96-9.01-13.48-13.48-.92-.91-1.34-1.89-1.33-3.18,.03-6.48,.02-12.95,0-19.43,0-2.3-1.44-3.89-3.47-3.92-2.04-.03-3.49,1.57-3.49,3.87,0,3.6,0,7.19,0,10.79Z"/>
    </g>
  </g>
</svg>