<?xml version="1.0" encoding="UTF-8"?>
<svg id="Calque_2" data-name="Calque 2" xmlns="http://www.w3.org/2000/svg" viewBox="0 0 208.35 256.87">
  <defs>
    <style>
      .cls-1 {
        fill: #fff;
      }
    </style>
  </defs>
  <g id="Calque_2-2" data-name="Calque 2">
    <g id="Calque_1-2" data-name="Calque 1-2">
      <g id="Calque_2-2" data-name="Calque 2-2">
        <g id="Calque_1-2-2" data-name="Calque 1-2">
          <g>
            <path class="cls-1" d="M86.29,256.87c-2.19-2.45-5.38-1.5-8.05-2.31-4.9-1.47-10.04-2.18-14.94-3.62-29.48-8.73-30.52-9.82-40.13-38.77-7.57-22.86-15.21-45.68-23.16-69.53,10.71,2.49,20.54,4.93,30.43,7.01,56.9,11.94,113.5,10.57,169.79-3.9,1.08-.28,2.19-.47,3.27-.7,1.46-.31,3.07-1.76,4.35-.35,1.24,1.35-.12,2.92-.61,4.31-4.81,13.69-9.66,27.36-14.5,41.05-5.07,14.31-10.26,28.58-15.13,42.95-1.32,3.89-3.4,6.3-7.13,8.13-15.34,7.61-31.33,12.84-48.4,14.65-.78,.08-1.5,.7-2.26,1.08h-33.52Zm42.72-9.8c2.47-27.01,3.93-53.93,2.96-80.92-3,26.94-4.9,53.93-2.96,80.92Zm-49.93-82.73c-.3,25.74,1.11,51.36,5.4,76.75,.58-25.77-2.01-51.29-5.4-76.75Zm79.99-1.91c-4.77,9.92-12.05,72.63-8.89,79.11,3.86-26.6,6.65-52.1,8.89-79.11ZM39.98,235.99c-3.31-24.08-7.3-48.13-13.98-71.63,2.49,24.28,6.72,48.2,13.98,71.63Zm128.09-2.15c6.67-21.67,11.31-43.81,14.31-66.3-7.28,21.54-11.53,43.76-14.31,66.3Zm-107.8,.97c.96-21.27-3.15-42.06-6.31-62.94-.47,21.23,2.38,42.13,6.31,62.94Zm46.05-64.73c-.72,0-1.43,0-2.15,.01-.58,25.83-1.47,51.66,2.15,77.45v-77.48h0Z"/>
            <path class="cls-1" d="M134.58,122.58c-28.29,.57-53.76-7.23-79.44-13.82-11.69-3-23.39-5.66-35.59-5.24-3.49,.12-7.7,.22-9.4-3.59-1.68-3.72,.95-6.9,3.2-9.67,6.74-8.28,14.8-14.93,25.02-18.4,3.08-1.04,4.57-2.34,5.22-5.82,1.8-9.62,7.81-15.98,17.27-18.46,3.78-.99,5.7-1.99,5.47-6.45-.36-7.17,3.97-12.12,9.53-15.94,5.16-3.55,10.62-6.67,16.59-8.58,6.42-2.04,10.89-5.89,13.3-12.17,2.05-5.38,5.62-5.63,9.19-1.91,10.4,10.9,22.17,19.92,35.01,27.77,6.04,3.69,8.57,10.34,8.63,17.32,.04,3.86,1.45,5.24,4.82,6.57,9.97,3.9,15.16,11.69,15.07,22.29-.04,4.15,1.39,5.95,4.69,7.62,3.96,2.03,7.67,4.57,10.88,7.74,7.84,7.78,7,14.69-2.78,19.66-10.86,5.51-22.78,7.63-34.66,9.61-7.7,1.28-15.51,1.93-21.98,1.47h-.03Zm-8.36-31.13c-23.77-1.76-47.02-6.72-70.04-13.13,22.15,11.01,45.33,16.23,70.04,13.13Zm18.57-34.94c-16.98,1.69-34.02,.68-51.05,.62,17.12,4.97,34.13,5.01,51.05-.62Z"/>
          </g>
        </g>
      </g>
    </g>
  </g>
</svg>