<?xml version="1.0" encoding="UTF-8"?>
<svg id="Calque_2" data-name="Calque 2" xmlns="http://www.w3.org/2000/svg" viewBox="0 0 152.9 152.89">
  <defs>
    <style>
      .cls-1 {
        fill: #fff;
      }
    </style>
  </defs>
  <g id="Calque_1-2" data-name="Calque 1">
    <g>
      <path class="cls-1" d="M136.7,142.52c-8.02,6.32-15.78,8.52-17.58,8.93-3.56,.8-7.26,1.33-10.91,1.36-21.04,.12-42.08,.08-63.12,.05-19.47-.03-36.11-11.83-42.61-30.19C.89,118.14,.06,113.47,.06,108.67c-.02-21.2-.15-42.4,.04-63.6C.26,27.27,8.45,13.99,23.9,5.25,30.13,1.73,36.96,.06,44.13,.05c21.52-.04,43.04-.09,64.56,0,22.34,.1,41.43,17.35,43.88,39.5,.2,1.78,.3,3.59,.31,5.38,.02,21.12,.03,42.24,0,63.36,0,4-.52,7.85-1.52,11.55-.37,1.36-1.98,6.84-6.01,13.08-1.23,1.9-2.38,3.41-3.24,4.46-.89,.94-1.78,1.88-2.68,2.82-.62,.56-1.55,1.38-2.73,2.32Zm7.21-66.08c0-10.52,.02-21.04,0-31.56-.05-19.95-16.02-35.87-35.97-35.88-21,0-42,0-63,0-19.86,0-35.88,15.98-35.91,35.82-.02,21.2-.02,42.4,.02,63.6,0,2.03,.19,4.09,.58,6.08,3.4,17.44,17.9,29.37,35.67,29.38,20.96,.01,41.92,.01,62.88,0,1.56,0,3.12-.09,4.66-.31,18.03-2.54,31.06-17.58,31.07-35.81,0-10.44,0-20.88,0-31.32Zm-138.41,1.85c0-1.33,.1-2.83-.04-4.31-.08-.8-.87-1.15-1.65-.98-.79,.18-1.36,.64-1.01,1.83,.38-.27,.65-.51,.95-.67,.18-.09,.51-.16,.62-.07,.13,.12,.19,.5,.09,.62-.26,.33-.59,.64-.94,.87-.81,.54-1.12,1.29-.79,2.16,.13,.33,.66,.61,1.06,.69,.45,.09,.95-.07,1.71-.15Zm144-.01c0-1.31,.1-2.82-.04-4.29-.08-.81-.87-1.16-1.65-.99-.79,.17-1.37,.63-1.02,1.82,.38-.27,.65-.49,.95-.65,.18-.09,.51-.17,.61-.08,.13,.12,.2,.5,.1,.62-.3,.36-.66,.68-1.04,.95-.76,.54-1.01,1.28-.7,2.09,.13,.33,.66,.62,1.05,.7,.45,.09,.95-.07,1.72-.16Z"/>
      <path class="cls-1" d="M137.28,138.36c0,.53,.05,1.08-.02,1.6-.04,.24-.34,.43-.52,.64-.2-.24-.59-.52-.55-.71,.13-.57,.42-1.11,.65-1.66,.15,.04,.3,.08,.45,.12Z"/>
      <path class="cls-1" d="M5.51,78.3c-.77,.08-1.27,.24-1.71,.15-.4-.08-.93-.36-1.06-.69-.33-.87-.02-1.62,.79-2.16,.35-.24,.68-.54,.94-.87,.1-.12,.03-.5-.09-.62-.1-.09-.43-.03-.62,.07-.31,.16-.57,.39-.95,.67-.35-1.18,.22-1.65,1.01-1.83,.78-.17,1.58,.17,1.65,.98,.14,1.48,.04,2.98,.04,4.31Z"/>
      <path class="cls-1" d="M149.51,78.29c-.78,.09-1.28,.25-1.72,.16-.39-.08-.92-.37-1.05-.7-.31-.81-.06-1.55,.7-2.09,.38-.27,.74-.59,1.04-.95,.09-.11,.02-.5-.1-.62-.1-.09-.43-.01-.61,.08-.31,.16-.57,.38-.95,.65-.35-1.19,.23-1.65,1.02-1.82,.78-.17,1.57,.18,1.65,.99,.14,1.48,.04,2.98,.04,4.29Z"/>
      <path class="cls-1" d="M113.92,76.61c-.2,20.88-17.08,37.49-37.88,37.28-20.59-.21-37.25-17.22-37.01-37.79,.23-20.72,17.16-37.33,37.82-37.1,20.6,.22,37.27,17.13,37.07,37.61Zm-8.3-.05c.06-16.1-12.93-29.2-29.03-29.26-16.09-.07-29.2,12.95-29.26,29.04-.06,16,12.95,29.22,28.79,29.26,16.35,.04,29.43-12.84,29.5-29.03Z"/>
      <path class="cls-1" d="M117.93,43.49c-4.64,.04-8.48-3.77-8.51-8.44-.03-4.63,3.79-8.46,8.47-8.48,4.58-.02,8.38,3.76,8.44,8.38,.06,4.64-3.73,8.49-8.41,8.53Z"/>
    </g>
  </g>
</svg>