<?xml version="1.0" encoding="UTF-8"?>
<svg id="Calque_2" data-name="Calque 2" xmlns="http://www.w3.org/2000/svg" viewBox="0 0 197.46 280.55">
  <defs>
    <style>
      .cls-1 {
        fill: #fff;
      }
    </style>
  </defs>
  <g id="Calque_1-2" data-name="Calque 1">
    <g>
      <path class="cls-1" d="M98.89,0c50.89,.42,93.6,39.47,98.13,90.02,2.13,23.74-3.65,46.05-12.51,67.7-14.21,34.7-35.08,65.36-58.55,94.33-7.14,8.81-14.82,17.18-22.37,25.66-3.28,3.68-6.03,3.78-9.18,.38-31.62-34.12-59.14-71.11-78.46-113.69C7.63,146.02,2.16,126.87,.36,106.6-4.04,57.19,32.7,9.68,81.82,1.91c5.65-.89,11.38-1.29,17.07-1.91Zm-.23,267.43c1.25-1.27,2.29-2.15,3.12-3.2,13.13-16.63,26.84-32.85,39.19-50.04,17-23.67,31.06-49.07,39.73-77.11,5.63-18.2,8.58-36.71,4.52-55.67C175.05,33.93,131.16,4.26,83.2,12.29,39.03,19.69,6.84,61.73,10.87,106.34c1.67,18.49,6.87,35.92,14.31,52.77,15.41,34.88,37.28,65.58,61.6,94.67,3.82,4.57,7.81,8.99,11.88,13.66Z"/>
      <path class="cls-1" d="M98.67,267.43c-4.07-4.67-8.06-9.09-11.88-13.66-24.32-29.09-46.2-59.78-61.6-94.67-7.44-16.85-12.64-34.28-14.31-52.77C6.84,61.73,39.03,19.69,83.2,12.29c47.96-8.03,91.85,21.64,102.02,69.11,4.06,18.96,1.11,37.47-4.52,55.67-8.67,28.04-22.73,53.45-39.73,77.11-12.35,17.2-26.06,33.41-39.19,50.04-.83,1.05-1.87,1.92-3.12,3.2ZM49.02,99.07c0,27.53,22.21,49.78,49.68,49.76,27.74-.02,49.96-22.22,49.96-49.92,0-27.08-22.44-49.6-49.56-49.71-27.58-.12-50.08,22.28-50.09,49.87Z"/>
      <path class="cls-1" d="M49.02,99.07c0-27.58,22.51-49.98,50.09-49.87,27.12,.12,49.56,22.63,49.56,49.71,0,27.7-22.23,49.9-49.96,49.92-27.47,.02-49.69-22.24-49.68-49.76Zm49.64,39.29c21.95-.03,39.44-17.49,39.52-39.43,.07-21.39-17.98-39.36-39.42-39.24-21.7,.12-39.22,17.68-39.26,39.35-.04,21.7,17.54,39.36,39.17,39.32Z"/>
    </g>
  </g>
</svg>