<?xml version="1.0" encoding="UTF-8"?>
<svg id="Calque_2" data-name="Calque 2" xmlns="http://www.w3.org/2000/svg" viewBox="0 0 115.53 76.96">
  <defs>
    <style>
      .cls-1 {
        fill: #fff;
      }
    </style>
  </defs>
  <g id="Calque_1-2" data-name="Calque 1">
    <path class="cls-1" d="M57.85,54.48c18.72-14.58,37.25-28.96,55.68-43.47,1.1-.87,1.89-2.71,1.98-4.15,.3-4.83-1.95-6.82-7.53-6.83C85.99,0,64.01,.02,42.03,.02,30.54,.02,19.05,.05,7.56,0,4.34-.01,1.44,.5,.4,4.04c-.97,3.32-.26,5.97,2.94,8.11,4.14,2.76,7.92,6.07,11.86,9.14,14.16,11.03,28.33,22.06,42.64,33.2Zm-20.13-7.96c-12.23,9.95-24.47,19.89-36.7,29.84,37.84,.2,75.68,.4,113.52,.6-12.19-10.14-24.38-20.29-36.57-30.43-4.68,3.63-9.14,7.06-13.58,10.54-7.48,5.86-5.99,5.42-13.25-.14-4.36-3.34-8.67-6.72-13.42-10.41ZM1.02,76.36c12.23-9.95,24.47-19.89,36.7-29.84L.34,17.37c.23,19.66,.45,39.32,.68,58.99ZM115.33,17.37c-12.46,9.72-24.91,19.44-37.37,29.16,12.19,10.14,24.38,20.29,36.57,30.43,.27-19.86,.53-39.72,.8-59.59Z"/>
  </g>
</svg>