<?xml version="1.0" encoding="UTF-8"?>
<svg id="Calque_2" data-name="Calque 2" xmlns="http://www.w3.org/2000/svg" viewBox="0 0 65.54 65.86">
  <defs>
    <style>
      .cls-1 {
        fill: #fff;
      }
    </style>
  </defs>
  <g id="Calque_1-2" data-name="Calque 1">
    <path class="cls-1" d="M49.3,65.86c-6.25-.08-11.75-1.76-16.91-4.48C18.24,53.94,8.14,42.76,2.24,27.86,.41,23.24-.4,18.39,.19,13.38,1.05,6.13,5.33,1.61,12.54,.35c3.9-.68,3.95-.66,5.85,2.83,2.51,4.6,5.02,9.2,7.53,13.8,1.07,1.96,.95,2.75-.65,4.35-1.99,1.99-4,3.97-5.99,5.97-1.37,1.38-1.46,2.24-.45,3.88,4.05,6.55,9.38,11.82,15.81,15.99,1.51,.98,2.24,.93,3.61-.31,2.27-2.06,4.54-4.12,6.79-6.21,.79-.74,1.6-1.02,2.61-.53,1.34,.66,2.69,1.3,4.02,1.98,3.97,2.01,7.94,4.03,11.9,6.04,1.79,.91,2.08,1.41,1.92,3.37-.61,7.69-6.42,13.53-14.11,14.19-.82,.07-1.63,.13-2.1,.16Z"/>
  </g>
</svg>