<?xml version="1.0" encoding="UTF-8"?>
<svg id="Calque_2" data-name="Calque 2" xmlns="http://www.w3.org/2000/svg" viewBox="0 0 94.96 207.18">
  <defs>
    <style>
      .cls-1 {
        fill: #fff;
      }
    </style>
  </defs>
  <g id="Calque_1-2" data-name="Calque 1">
    <g id="Calque_2-2" data-name="Calque 2-2">
      <g id="Calque_1-2" data-name="Calque 1-2">
        <g>
          <path class="cls-1" d="M.05,99.45c.02-.65,.05-2.16,.08-4.07,.3-20.35,1.55-40.68,3.13-60.97,.24-3.05,1.09-4.08,4.24-2.81,3.34,1.35,6.91,2.08,10.35,3.18,4.37,1.4,8.63,2.68,9.73-5.05,2.27,4.56,3.06,8.04,8.62,8.5,18.02,1.48,35.44-.52,52.47-6.37,3.04-1.04,4.3-.98,4.41,2.78,.46,15.88,1.4,31.74,1.71,47.62,.64,32.95-.53,65.86-2.67,98.74-.68,10.47-5.47,17.84-15.08,21.13-19.06,6.53-38.49,6.73-57.67,.58-9.22-2.96-14.34-10.07-15.34-19.97C1.76,160.18,1.21,135.77,.14,113.87c-.06-1.24-.11-2.24-.14-2.82,.02-3.87,.03-7.74,.05-11.6ZM24.84,54.65c.41-4.1-3-6.86-2-10.47,.65-2.36-.26-3.35-2.58-3.57-1.29-.12-2.55-.62-3.82-.95-5.69-1.44-8.75,.79-9.19,6.7-3.38,45.33-3.07,90.61,1.75,135.83,.86,8.08,5.14,13.85,12.68,16.11,17.61,5.26,35.41,5.13,52.92-.55,7.93-2.57,12.03-8.45,12.59-17.12,1.2-18.5,2.09-37.01,2.55-55.53,.71-28.14,.15-56.26-1.43-84.36-.18-3.19-1.38-2.85-3.69-2.18-12.72,3.67-25.72,5.48-38.97,5.17-4.08-.1-8.15-.46-12.66-.73,3.53,6.04,.1,10.96-2.04,15.69-3.45,7.65,1.71,12.82,3.94,18.94,1.76-5.78,6.02-10.88,4.42-17.08-.83-3.2-.28-3.68,2.73-3.44,12.61,1,24.97-.66,36.97-4.51,4.13-1.33,4.69,.03,4.78,3.63,.31,12.4,1.01,24.8,1.25,37.2,.52,27.32-.43,54.61-2.33,81.86-.56,8.05-4.73,13.36-12.21,15.7-15.14,4.74-30.47,4.84-45.65,.3-6.82-2.04-11.07-7.11-11.88-14.41-4.25-38.44-4.4-76.96-1.59-115.5,.72-9.84,.93-9.83,10.19-7.51,.95,.24,1.9,.46,3.28,.79h0ZM60.81,119.88c-6.21,9.28-6.55,18.7,0,27.98,4.84-9.25,6.9-18.63,0-27.98Zm-12.99-34.92c-6.36,10.85-6.24,20.73,.31,27.35,4.54-9.07,6.47-18.19-.31-27.35Z"/>
          <path class="cls-1" d="M14.01,0c6,3.75,9.02,12.79,6.51,19.56-1.18,3.2-2.42,6.39-3.95,10.43-2.9-7.81-5.46-14.71-8.02-21.61C6.89,3.89,9.68,1.8,13.02,0h.99Z"/>
        </g>
      </g>
    </g>
  </g>
</svg>