<?xml version="1.0" encoding="UTF-8"?>
<svg id="Calque_2" data-name="Calque 2" xmlns="http://www.w3.org/2000/svg" viewBox="0 0 154.2 190.11">
  <defs>
    <style>
      .cls-1 {
        fill: #fff;
      }
    </style>
  </defs>
  <g id="Calque_1-2" data-name="Calque 1">
    <g id="Calque_2-2" data-name="Calque 2-2">
      <g id="Calque_1-2" data-name="Calque 1-2">
        <g>
          <path class="cls-1" d="M63.86,190.11c-1.62-1.81-3.98-1.11-5.96-1.71-3.63-1.09-7.43-1.61-11.06-2.68-21.82-6.46-22.59-7.27-29.7-28.69C11.54,140.11,5.88,123.22,0,105.57c7.93,1.84,15.2,3.65,22.52,5.19,42.11,8.84,84,7.82,125.66-2.89,.8-.21,1.62-.35,2.42-.52,1.08-.23,2.27-1.3,3.22-.26,.92,1-.09,2.16-.45,3.19-3.56,10.13-7.15,20.25-10.73,30.38-3.75,10.59-7.59,21.15-11.2,31.79-.98,2.88-2.52,4.66-5.28,6.02-11.35,5.63-23.19,9.5-35.82,10.84-.58,.06-1.11,.52-1.67,.8h-24.81Zm31.62-7.25c1.83-19.99,2.91-39.91,2.19-59.89-2.22,19.94-3.63,39.91-2.19,59.89Zm-36.95-61.23c-.22,19.05,.82,38.01,4,56.8,.43-19.07-1.49-37.96-4-56.8Zm59.2-1.41c-3.53,7.34-8.92,53.75-6.58,58.55,2.86-19.69,4.92-38.56,6.58-58.55ZM29.59,174.66c-2.45-17.82-5.4-35.62-10.35-53.01,1.84,17.97,4.97,35.67,10.35,53.01Zm94.8-1.59c4.94-16.04,8.37-32.42,10.59-49.07-5.39,15.94-8.53,32.39-10.59,49.07Zm-79.78,.72c.71-15.74-2.33-31.13-4.67-46.58-.35,15.71,1.76,31.18,4.67,46.58Zm34.08-47.91c-.53,0-1.06,0-1.59,.01-.43,19.12-1.09,38.23,1.59,57.32v-57.34h0Z"/>
          <path class="cls-1" d="M99.6,90.72c-20.94,.42-39.79-5.35-58.79-10.23-8.65-2.22-17.31-4.19-26.34-3.88-2.58,.09-5.7,.16-6.96-2.66-1.24-2.75,.7-5.11,2.37-7.16,4.99-6.13,10.95-11.05,18.52-13.62,2.28-.77,3.38-1.73,3.86-4.31,1.33-7.12,5.78-11.83,12.78-13.66,2.8-.73,4.22-1.47,4.05-4.77-.27-5.31,2.94-8.97,7.05-11.8,3.82-2.63,7.86-4.94,12.28-6.35,4.75-1.51,8.06-4.36,9.84-9.01,1.52-3.98,4.16-4.17,6.8-1.41,7.7,8.07,16.41,14.74,25.91,20.55,4.47,2.73,6.34,7.65,6.39,12.82,.03,2.86,1.07,3.88,3.57,4.86,7.38,2.89,11.22,8.65,11.15,16.5-.03,3.07,1.03,4.4,3.47,5.64,2.93,1.5,5.68,3.38,8.05,5.73,5.8,5.76,5.18,10.87-2.06,14.55-8.04,4.08-16.86,5.65-25.65,7.11-5.7,.95-11.48,1.43-16.27,1.09h-.02Zm-6.19-23.05c-17.59-1.3-34.8-4.97-51.84-9.72,16.39,8.15,33.55,12.01,51.84,9.72Zm13.74-25.86c-12.57,1.25-25.18,.5-37.78,.46,12.67,3.68,25.26,3.71,37.78-.46Z"/>
        </g>
      </g>
    </g>
  </g>
</svg>