<?xml version="1.0" encoding="UTF-8"?>
<svg id="Calque_2" data-name="Calque 2" xmlns="http://www.w3.org/2000/svg" viewBox="0 0 267.12 285.84">
  <defs>
    <style>
      .cls-1 {
        stroke: #e56054;
        stroke-linecap: round;
        stroke-linejoin: round;
        stroke-width: .75px;
      }

      .cls-1, .cls-2 {
        fill: none;
      }

      .cls-3, .cls-4 {
        fill: #ed7378;
      }

      .cls-2 {
        stroke: #ed7378;
        stroke-miterlimit: 10;
        stroke-width: .43px;
      }

      .cls-4 {
        font-family: AmericanaStd-ExtraBold, 'Americana Std';
        font-size: 23px;
        font-weight: 700;
      }
    </style>
  </defs>
  <g id="Calque_2-2" data-name="Calque 2">
    <path class="cls-3" d="M156.9,89c-3.01,3.49-12.34,4.47-19.25,5.04-6.92,.57-16.12,.57-21.8,0-5.56-.56-9.1-1.89-11.08-4.01-.04-.04-.01-.11,.04-.12,.24-.02,.72-.23,1.4-1.31,.98-1.58,2.17-4.34,11.95-4.64,1.84,2.41,7.64,2.41,11.05,2.41s8.09-.55,10.23-1.21c4.05-1.24,4.12-1.48,4.12-1.5,2.17-.29,8.7,.89,9.68,.99,.99,.1,3.66,3.06,3.66,4.35Z"/>
    <path class="cls-3" d="M143.56,83.66s-.07,.26-4.12,1.5c-2.14,.66-6.82,1.21-10.23,1.21s-9.21,0-11.05-2.41c0-3.65,.5-5.63,2.87-5.83s18.97,0,20.75,0,1.78,3.46,1.78,5.53Z"/>
    <path class="cls-3" d="M168.66,91.77c0,1.18-1.28,1.87-1.68,2.27-2.29,.98-9.98,5.06-32.41,6.08-23.39,1.06-35.62-.51-39.41-1.51-2.19-.82-6.38-3.98-4.53-5.22,1.85-1.23,14.01-3.5,14.01-3.5,1.96,2.2,5.53,3.58,11.21,4.15,5.68,.57,14.88,.57,21.8,0,6.91-.57,16.24-1.55,19.25-5.04,2.27-.4,11.76,1.58,11.76,2.77Z"/>
    <path class="cls-2" d="M184.18,113.41c-2.48-3.66-16.31-8.3-16.31-8.3,0,0-.79-9.98-.89-11.07-2.29,.98-9.98,5.06-32.41,6.08-23.39,1.06-35.62-.51-39.41-1.51,.35,3.57,9.07,72.8,10.1,77.06,1.03,4.25,3.09,7.21,4.87,8.38,3.46,2.86,8.37,5.17,16.98,5.12,8.6-.05,17.7,.44,23.11-1.28,5.41-1.72,4.08-1.35,6.78-4.82,4.01-3.68,4.94-9.18,4.84-13.04,1.58-.69,2.77-1.58,13.64-6.92,10.87-5.33,11.26-9.68,11.76-11.76,.49-2.07,.39-8.4,.49-20.25,.1-11.86-1.08-14.04-3.55-17.69Zm-68.53,67.41c-.56,0-3.13-15.37-5.73-34.41-2.62-19.07-4.3-34.6-3.75-34.67,.56,0,3.12,15.38,5.73,34.4,2.62,19.08,4.29,34.6,3.75,34.68Zm17.92,.64c-.56,0-1-15.61-1-34.86s.44-34.86,1-34.86,1,15.61,1,34.86-.45,34.86-1,34.86Zm19.12-35.05c-2.6,19.04-5.17,34.41-5.72,34.41-.55-.08,1.13-15.6,3.74-34.68,2.61-19.02,5.17-34.4,5.73-34.4,.55,.07-1.13,15.6-3.75,34.67Zm28.18,3.28c-.49,3.41-4.4,5.61-5.7,6.43-1.3,.81-6.92,3.41-8.87,3.17-1.95-.24-2.93-2.69-3.09-3.58-.17-.9,2.98-37.6,3.09-38.9,.14-1.72,.98-2.04,2.77-2.77,1.79-.73,5.69,1.06,9.27,2.2,3.59,1.14,3.02,4.15,3.59,5.94,.57,1.79-.57,24.09-1.06,27.51Z"/>
    <path class="cls-3" d="M135.63,285.84h-4.14c-29.13,0-44.56-5.34-43.92-15.18,4.16-64.37,16.67-60.37,21.26-81.49-.14-2.64-.28-4.71,1.3-5.12,3.46,2.86,8.37,5.17,16.98,5.12,8.6-.05,17.7,.44,23.11-1.28,5.41-1.72,4.08-1.35,6.78-4.82,2.21,.5,1.3,3.9,1.28,5.13,4.6,21.11,17.1,17.11,21.26,81.49,.64,9.84-14.79,16.15-43.91,16.15Z"/>
    <path class="cls-1" d="M180.87,149.69c-.49,3.41-4.4,5.61-5.7,6.43-1.3,.81-6.92,3.41-8.87,3.17-1.95-.24-2.93-2.69-3.09-3.58-.17-.9,2.98-37.6,3.09-38.9,.14-1.72,.98-2.04,2.77-2.77,1.79-.73,5.69,1.06,9.27,2.2,3.59,1.14,3.02,4.15,3.59,5.94,.57,1.79-.57,24.09-1.06,27.51Z"/>
    <path class="cls-2" d="M180.87,149.69c-.49,3.41-4.4,5.61-5.7,6.43-1.3,.81-6.92,3.41-8.87,3.17-1.95-.24-2.93-2.69-3.09-3.58-.17-.9,2.98-37.6,3.09-38.9,.14-1.72,.98-2.04,2.77-2.77,1.79-.73,5.69,1.06,9.27,2.2,3.59,1.14,3.02,4.15,3.59,5.94,.57,1.79-.57,24.09-1.06,27.51Z"/>
    <path class="cls-3" d="M115.65,180.82c-.56,0-3.13-15.37-5.73-34.41-2.62-19.07-4.3-34.6-3.75-34.67,.56,0,3.12,15.38,5.73,34.4,2.62,19.08,4.29,34.6,3.75,34.68Z"/>
    <path class="cls-3" d="M152.69,146.41c-2.6,19.04-5.17,34.41-5.72,34.41-.55-.08,1.13-15.6,3.74-34.68,2.61-19.02,5.17-34.4,5.73-34.4,.55,.07-1.13,15.6-3.75,34.67Z"/>
    <ellipse class="cls-3" cx="133.57" cy="146.6" rx="1" ry="34.86"/>
    <path class="cls-2" d="M210.12,37.41c34.34,24.12,56.78,64.03,56.78,109.18,0,51.32-28.99,95.86-71.49,118.16"/>
    <path class="cls-2" d="M71.81,264.81C29.26,242.54,.22,197.96,.22,146.6,.22,103.59,20.58,65.34,52.19,40.95"/>
    <text class="cls-4" transform="translate(62.55 40.76) rotate(-30.79)"><tspan x="0" y="0">S</tspan></text>
    <text class="cls-4" transform="translate(75.46 32.7) rotate(-22.2)"><tspan x="0" y="0">m</tspan></text>
    <text class="cls-4" transform="translate(96.34 24.44) rotate(-13.67)"><tspan x="0" y="0">o</tspan></text>
    <text class="cls-4" transform="translate(110.84 20.89) rotate(-6.86)"><tspan x="0" y="0">o</tspan></text>
    <text class="cls-4" transform="translate(125.74 19.24) rotate(-1.63)"><tspan x="0" y="0">t</tspan></text>
    <text class="cls-4" transform="translate(133.92 18.84) rotate(3.56)"><tspan x="0" y="0">h</tspan></text>
    <text class="cls-4" transform="translate(148.79 19.64) rotate(10.89)"><tspan x="0" y="0">C</tspan></text>
    <text class="cls-4" transform="translate(165.87 23.02) rotate(17.99)"><tspan x="0" y="0">a</tspan></text>
    <text class="cls-4" transform="translate(178.91 27.38) rotate(22.93)"><tspan x="0" y="0">f</tspan></text>
    <text class="cls-4" transform="translate(186.11 30.26) rotate(27.93)"><tspan x="0" y="0">é</tspan></text>
  </g>
</svg>